<svg width="134" height="134" viewBox="0 0 134 134" fill="none" xmlns="http://www.w3.org/2000/svg">
<path d="M133.28 75.18C133.28 80.03 131.31 84.42 128.14 87.59C125.01 90.72 120.69 92.68 115.93 92.73V114.39C115.93 125.05 107.29 133.7 96.62 133.7H76.86C76.49 129.07 74.46 124.92 71.37 121.82C67.94 118.39 63.2 116.27 57.97 116.27C48.02 116.27 39.8499 123.94 39.0699 133.7H19.3099C8.64994 133.7 0 125.06 0 114.39V94.03C4.47 93.58 8.47999 91.58 11.49 88.57C14.92 85.14 17.04 80.4 17.04 75.17C17.04 65.34 9.57 57.27 0 56.3V36.28C0 25.62 8.63994 16.97 19.3099 16.97H40.4299C40.7399 7.55 48.48 0 57.98 0C62.83 0 67.22 1.97 70.4 5.14C73.45 8.19 75.38 12.35 75.53 16.97H96.65C107.31 16.97 115.96 25.61 115.96 36.28V57.61C125.57 57.72 133.32 65.54 133.32 75.17L133.28 75.18Z" fill="white"/>
<path d="M97.9499 52.09C97.8599 51.62 95.9899 51.53 95.3799 51.5C95.1499 51.49 94.9399 51.48 94.7599 51.46C93.9699 51.4 93.1299 51.39 92.3399 51.39H91.0598C89.5898 51.39 88.4498 51.51 87.5598 51.76C87.2198 51.85 86.9 52.07 86.8 52.22C86.3 52.94 86.2899 54.1 86.2799 55.22C86.2799 55.83 86.2699 56.33 86.2099 56.84C86.1899 57 86.1798 57.17 86.1798 57.31V57.52C86.1598 57.62 86.1499 57.71 86.1499 57.88C86.1199 58.86 85.9598 65.67 85.8098 74.55C85.7298 79.08 85.4998 82.26 85.3198 84.13V84.15L85.1999 84.9L84.9499 85.32L84.1699 86.07L83.3999 85.21C81.9899 83.71 80.0599 82.98 77.5099 82.98C77.2399 82.98 76.9599 82.99 76.6599 83.02C74.2699 83.23 72.4199 84.07 71.0199 85.58C67.2999 89.6 66.0499 95.46 67.6699 101.25C68.7999 105.29 72.0899 108 75.8499 108C75.9499 108 76.0499 108 76.1399 108C79.2899 107.89 82.0499 107.09 83.7199 105.8C83.9299 105.64 84.1499 105.47 84.3499 105.3C84.5999 105.1 84.8499 104.9 85.1099 104.7L85.7599 104.21L86.4398 104.65C87.0198 105.01 87.0699 105.56 87.0799 105.76C87.0999 105.94 87.1199 106.14 87.1299 106.36V106.57C87.1799 107.07 87.1899 107.22 87.3299 107.42C87.4599 107.61 87.5799 107.63 87.7099 107.66H87.7699C88.1599 107.76 88.8199 107.77 89.3499 107.77C89.5799 107.77 89.8298 107.77 90.0698 107.77C90.3198 107.77 90.5799 107.77 90.8299 107.77C92.6599 107.77 94.4399 107.52 95.3399 107.13L95.4298 107.09C95.6998 106.98 95.9499 106.87 96.0299 106.82C96.0399 106.8 96.0499 106.76 96.0799 106.68C96.1299 106.52 96.1999 105.95 96.1999 105.74C96.1999 104.9 96.1799 104.14 96.1599 103.41C96.1299 102.52 96.0999 101.6 96.1299 100.54C96.1499 99.8 96.1299 98.8 96.1099 97.84C96.0899 96.94 96.0799 96 96.0899 95.23V94.72C96.1399 91.18 96.2699 81.77 96.8799 73.18C97.1799 68.98 97.3999 65.13 97.5799 62.04C97.7099 59.83 97.8099 58.08 97.8899 57.01L97.9398 56.34C98.0298 55.27 98.1999 53.29 97.9599 52.1L97.9499 52.09ZM87.1898 94.23C87.1598 94.32 87.1199 94.41 87.0799 94.51C86.8399 94.99 86.4398 95.36 85.9398 95.57L86.5299 97.37C86.8499 98.35 86.3199 99.42 85.3399 99.74L83.5999 100.32L83.3098 99.92C83.1598 99.71 82.9699 99.55 82.7499 99.44C82.5299 99.33 82.2998 99.27 82.0598 99.27C81.8898 99.27 81.7298 99.3 81.5698 99.35C81.1998 99.47 80.8799 99.73 80.6999 100.1C80.5799 100.33 80.5099 100.58 80.5199 100.85V101.34L78.7799 101.92C78.5899 101.98 78.3898 102.01 78.1898 102.01C77.3798 102.01 76.6599 101.49 76.4099 100.72L75.8198 98.93L76.2099 98.64C76.3999 98.49 76.5599 98.31 76.6699 98.09C76.8599 97.72 76.8899 97.31 76.7499 96.92C76.5399 96.29 75.96 95.87 75.3 95.87H74.8L74.2199 94.11C74.0599 93.63 74.0998 93.12 74.3198 92.68C74.5498 92.23 74.9299 91.9 75.4099 91.74L76.5598 91.36C76.2998 90.23 76.9299 89.09 78.0399 88.73C78.2699 88.65 78.5099 88.61 78.7499 88.61C79.0899 88.61 79.4399 88.69 79.7599 88.85C80.2299 89.09 80.59 89.47 80.8 89.96L81.9499 89.58C82.1399 89.52 82.3399 89.48 82.5399 89.48C83.3499 89.48 84.0699 90 84.3299 90.77L84.5199 91.35C84.6999 91.31 84.8798 91.29 85.0598 91.29C85.4998 91.29 85.9199 91.42 86.2899 91.65H86.3098L86.7399 92.01V92.04C86.9399 92.27 87.0898 92.53 87.1898 92.82C87.3498 93.29 87.3498 93.79 87.1898 94.25V94.23Z" fill="#FBA81A"/>
<path d="M64.8901 63.41C64.2401 63.41 63.6501 63.32 63.2101 63.16C63.1701 63.14 62.9101 62.98 62.8601 62.94C62.3401 62.49 61.9901 60.82 61.9601 59.46C61.9601 59.34 61.9601 59.21 61.9801 59.08C62.0201 58.73 62.05 58.36 61.93 57.95L61.7701 57.43H60.1401C60.0901 57.4 60.0301 57.35 59.9901 57.33C59.7901 56.89 59.8101 56.09 60.0301 55.64C60.0601 55.62 60.1401 55.59 60.2401 55.58C60.2901 55.58 60.3301 55.58 60.3701 55.58C60.4801 55.58 60.57 55.6 60.68 55.62C60.82 55.64 60.9301 55.66 61.0401 55.66C61.9301 55.66 62.1001 54.77 62.1701 54.43C62.2601 53.94 62.3001 53.46 62.3301 53.04C62.3801 52.4 62.4201 51.8 62.6401 51.2C62.6701 51.12 62.7301 51.01 62.9201 51H62.9601C63.4901 51 64.8801 51.21 65.0801 51.29C65.3101 51.39 65.3401 51.7 65.3301 51.88C65.3301 52.03 65.2001 52.76 65.1301 53.19C64.8701 54.76 64.8401 54.94 65.0001 55.23C65.1801 55.54 65.5001 55.72 65.8801 55.72C66.0101 55.72 66.1401 55.7 66.2601 55.68H66.3301C66.3301 55.68 66.3401 55.67 66.3501 55.67C66.4001 55.67 66.48 55.67 66.57 55.67C66.71 55.67 66.8501 55.67 66.9901 55.67C67.2701 55.67 67.4301 55.69 67.5001 55.7C67.5501 55.83 67.6201 56.15 67.6001 56.59C67.5801 56.94 67.5101 57.16 67.4701 57.25C67.3201 57.29 67.03 57.37 66.93 57.39H65.6301C65.4001 57.39 65.1801 57.48 65.0301 57.66C64.6701 58.05 64.6701 58.91 64.7201 59.57C64.8401 61.02 65.7501 61.18 66.1301 61.18C66.4801 61.18 66.8101 61.07 67.1401 60.97C67.3801 60.89 67.64 60.81 67.81 60.81C67.88 60.81 67.88 60.81 67.94 60.91C68.2 61.43 68.3101 62.12 68.0201 62.46C67.5201 63.04 66.2601 63.44 64.9001 63.44L64.8901 63.41Z" fill="#FBA81A"/>
<path d="M44.73 107.12C43.63 107.12 42.74 107.07 41.92 106.97C41.58 106.93 41.24 106.91 40.92 106.89C40.38 106.86 39.86 106.83 39.36 106.7C38.31 106.42 37.94 104.65 37.67 103.36C37.62 103.11 37.57 102.88 37.52 102.67C37.07 100.78 36.6099 98.83 35.2199 97.2C34.6499 96.53 33.9899 96.21 33.1899 96.21C32.6799 96.21 32.23 96.39 31.9 96.73C31.39 97.25 31.1599 98.11 31.1799 99.35C31.1999 100.43 31.3299 101.53 31.4599 102.6C31.4999 102.94 31.5399 103.27 31.5699 103.6C31.6699 104.58 31.78 105.59 31.6 106.38C31.59 106.43 31.5199 106.56 31.4599 106.62C30.9099 106.9 29.7399 106.93 28.9499 106.95C28.7499 106.95 28.55 106.96 28.38 106.97L27.8399 107C27.2599 107.03 26.62 107.07 26 107.07C25.14 107.07 24.47 107 24.03 106.85C23.98 106.83 23.86 106.76 23.8 106.72C23.74 106.6 23.68 106.32 23.67 106.18C23.96 102.22 23.9399 97.78 23.8099 91.9C23.7399 88.72 23.62 85.42 23.5 82.23C23.44 80.55 23.3799 78.88 23.3199 77.25C23.2899 76.2 23.27 75.11 23.26 74.07C23.25 72.87 23.2299 71.63 23.1799 70.42C23.1499 69.63 23.15 68.84 23.15 68.07C23.15 67.32 23.15 66.55 23.12 65.77C23.07 64.25 23.0799 62.95 23.0899 61.58C23.0899 60.76 23.11 59.92 23.1 58.99C23.1 58.88 23.1 58.52 23.1 58.11C23.1 57.5 23.11 56.78 23.1 56.57V56.2C23.06 54.29 23.1 52.92 24 52.66C24.47 52.52 25.13 52.5 25.78 52.48H26.16C26.84 52.44 27.5199 52.41 28.2099 52.37C28.8799 52.34 29.5499 52.3 30.2199 52.28C30.5799 52.27 30.93 52.25 31.28 52.25C31.58 52.25 31.8399 52.26 32.0599 52.28C32.2999 52.3 32.46 52.32 32.53 52.88C32.7 54.26 32.7599 55.99 32.7099 58.68C32.7099 59.1 32.67 59.86 32.63 60.6C32.59 61.52 32.54 62.46 32.55 62.91C32.55 63.79 32.55 64.59 32.55 65.39C32.55 66.37 32.55 67.34 32.55 68.41C32.55 69.24 32.53 69.99 32.51 70.78C32.48 71.57 32.4599 72.39 32.4699 73.31C32.4899 76.01 32.43 78.71 32.37 81.33C32.33 82.89 32.3 84.5 32.28 86.09C32.28 86.14 32.28 86.2 32.28 86.26C32.25 86.68 32.21 87.39 32.76 87.79C33.1 88.04 33.3999 88.15 33.7099 88.15C34.1999 88.15 34.52 87.85 34.74 87.65L34.77 87.62L35.26 87.02C36.15 85.99 36.87 85.06 37.63 84.07C37.88 83.75 38.14 83.42 38.41 83.07C39.58 81.58 40.7899 80.04 42.0599 78.67L42.1899 78.53C43.6199 76.99 44.0899 76.74 44.2199 76.71C44.3299 76.71 44.72 76.87 45.74 78.32L45.77 78.37C46.56 79.5 47.23 80.78 47.87 82.02L47.9 82.08C48.11 82.48 48.32 82.88 48.53 83.27C48.57 83.6 48.46 83.76 47.92 84.33C46.71 85.59 45.2 86.71 43.73 87.79C42.66 88.58 41.55 89.39 40.55 90.27L40.4499 90.35C39.9299 90.8 39.54 91.22 39.27 91.63C39.15 91.81 38.79 92.34 39 92.91C39.21 93.48 39.7999 93.64 40.3199 93.79C40.4099 93.81 40.4999 93.84 40.5899 93.87C41.1099 94.03 41.65 94.19 42.11 94.4C43.39 94.97 44.9999 96.27 45.3399 97.29C45.7999 98.67 46.11 100.2 46.4 101.67C46.5 102.17 46.63 102.67 46.75 103.16C46.93 103.89 47.1199 104.64 47.2199 105.36C47.2599 105.65 47.3299 106.2 47.1799 106.45C47.0599 106.65 46.5699 107.1 44.6899 107.1L44.73 107.12Z" fill="#FBA81A"/>
<path d="M71.6998 63.39C71.6398 63.39 71.5899 63.39 71.5299 63.39C70.7899 63.36 70.6198 63.1 70.5998 62.72C70.5298 61.57 70.5099 60.4 70.4999 59.27C70.4799 57.86 70.4598 56.4 70.3398 54.96C70.2598 54.1 70.2799 53.2 70.2999 52.43V52.28C70.3099 51.85 70.3199 51.41 70.3999 51.01C70.4799 50.59 70.6199 50.52 71.0199 50.52C71.1599 50.52 71.2998 50.53 71.4598 50.54C71.6598 50.55 71.8698 50.57 72.0898 50.57H72.2398C72.6398 50.57 72.8565 50.71 72.8899 50.99C72.9399 51.34 72.9299 51.73 72.9199 52.1V52.4C72.9199 52.51 72.8999 52.67 72.8799 52.86C72.7899 53.94 72.7498 54.96 73.2098 55.45C73.3798 55.63 73.5898 55.72 73.8398 55.72C74.0198 55.72 74.1999 55.67 74.4099 55.58C74.7099 55.44 74.9698 55.24 75.2098 55.04C75.4398 54.85 75.6599 54.68 75.8999 54.58C76.1699 54.47 76.4499 54.37 76.7699 54.37C76.8299 54.37 76.8998 54.37 76.9698 54.37C77.5998 54.41 78.1398 54.72 78.5698 55.28C79.9598 57.07 80.1298 60.17 79.4898 62.12C79.2298 62.93 79.0599 63.24 78.3999 63.32C78.2999 63.33 78.0898 63.35 77.8498 63.35C77.1998 63.35 76.8998 63.21 76.8498 63.08C76.7798 62.93 76.8898 62.63 76.9798 62.4C77.0098 62.32 77.0299 62.25 77.0499 62.18C77.2399 61.57 77.3499 60.88 77.4099 60.03C77.4599 59.23 77.4298 57.78 76.7298 57.04C76.4398 56.73 76.0699 56.57 75.6499 56.57C75.4999 56.57 75.3498 56.59 75.1998 56.63C72.9998 57.21 73.0299 59.96 73.0399 61.79C73.0399 62.2 73.0399 62.58 73.0299 62.87C72.9999 63.25 72.9898 63.31 72.2298 63.37C72.0598 63.38 71.8798 63.39 71.7098 63.39H71.6998Z" fill="#FBA81A"/>
<path d="M59.2799 46.8C58.2699 46.8 57.3198 46.59 56.9898 46.39C56.7398 46.24 56.4399 45.64 56.2899 45.04C55.7799 42.91 55.8798 40.4 55.9698 38.18L55.9898 37.78C55.9898 37.65 55.9898 37.45 55.9898 37.22C55.9898 37.06 55.9698 36.62 55.9898 36.37C56.1098 36.33 56.2799 36.28 56.4099 36.27C56.4999 36.27 56.6898 36.25 56.9698 36.25C57.0798 36.25 57.1699 36.25 57.2799 36.25C57.3899 36.25 57.4998 36.25 57.6098 36.25C58.0998 36.25 58.3799 36.33 58.5299 36.5C58.8399 36.87 58.6998 37.78 58.6098 38.38C58.5798 38.55 58.5599 38.7 58.5499 38.83C58.4899 39.35 58.4399 39.87 58.4199 40.37V40.69C58.3899 41.27 58.3699 41.99 58.4199 42.52C58.5099 43.29 59.0299 43.64 59.5099 43.64C59.9899 43.64 60.4499 43.3 60.6599 42.79C60.7399 42.6 60.8499 42.15 60.9999 41.46C61.0499 41.22 61.0999 40.96 61.1399 40.68C61.2799 39.85 61.4298 38.92 61.8498 38.5C61.8898 38.46 62.0899 38.37 62.3999 38.37C62.7699 38.37 62.9998 38.51 63.2298 38.88C63.3498 39.08 63.4299 39.33 63.5099 39.58L63.5399 39.69C63.6599 40.06 63.7398 40.5 63.8298 40.96C63.9498 41.57 64.0699 42.2 64.2899 42.76C64.4999 43.3 64.9398 43.64 65.4298 43.64C65.8698 43.64 66.4199 43.35 66.5199 42.52C66.6499 41.4 66.4898 40.27 66.3298 39.18C66.1898 38.21 66.0499 37.3 66.1499 36.5C66.1599 36.4 66.3298 36.31 66.4798 36.28C66.7598 36.23 67.5199 36.2 68.0199 36.2C68.1199 36.2 68.1999 36.2 68.2699 36.2C68.4199 36.2 68.6299 36.23 68.7799 36.26C68.7799 36.29 68.7799 36.33 68.7799 36.38C68.7799 36.51 68.7798 36.66 68.8098 36.81C69.0698 38.53 69.0798 41.54 68.9498 43.33C68.8798 44.24 68.4699 45.88 68.1499 46.24C68.0599 46.33 67.5399 46.59 67.1599 46.66C66.9099 46.71 66.3799 46.76 65.7999 46.76C65.1899 46.76 64.7699 46.7 64.6299 46.64C64.2599 46.49 63.9298 45.43 63.6998 44.66C63.3698 43.59 63.1099 42.75 62.4999 42.75C62.4399 42.75 62.3898 42.75 62.3298 42.78C61.7398 42.95 61.6298 43.59 61.5598 43.96L61.5099 44.22C61.3599 45.04 61.0998 46.41 60.3598 46.68C60.1498 46.76 59.7498 46.8 59.3098 46.8H59.2799Z" fill="#FBA81A"/>
<path d="M93.53 48.62C91.78 48.62 90.7099 48.33 90.4499 48.07C90.1699 47.78 90.26 47.13 90.52 46.67C90.52 46.67 90.52 46.65 90.53 46.64C90.62 46.64 90.71 46.64 90.8 46.64C91.14 46.64 91.4899 46.68 91.8599 46.72H91.9399C92.3199 46.77 92.71 46.82 93.13 46.82C93.85 46.82 94.9299 46.82 95.4699 45.98C95.7099 45.61 95.8799 45.15 95.9899 44.58C96.0199 44.43 96.02 44.24 96.02 44.03C96.02 43.85 96.0199 43.52 96.0699 43.43L95.4899 43.09C95.2399 43.51 94.6099 43.92 94.1199 44.11C93.6699 44.28 93.0799 44.37 92.4599 44.37C91.0499 44.37 89.81 43.92 89.28 43.21C88.34 41.96 88.1799 40.24 88.8699 38.73C89.4899 37.36 90.6599 36.51 92.0699 36.4C92.2699 36.38 92.4799 36.38 92.6899 36.38C93.8099 36.38 94.4899 36.67 95.0599 37.38L95.7399 38.23L96.38 37.35C96.61 37.03 96.76 36.98 97.14 36.98C97.31 36.98 97.4899 36.99 97.6899 37.01C98.3899 37.06 98.5599 37.21 98.5999 37.26C98.7299 37.42 98.63 38.02 98.54 38.51C98.48 38.87 98.42 39.24 98.39 39.64C98.32 40.61 98.3299 41.59 98.3299 42.54C98.3299 43.31 98.3399 44.05 98.3099 44.78C98.2499 46.18 98.15 47.07 97.29 47.77C96.88 48.1 96.3899 48.31 95.7399 48.45C95.2299 48.55 94.3699 48.62 93.5599 48.62H93.53ZM93.3699 37.92C93.2199 37.92 93.0399 37.92 92.8299 37.98C92.6299 38.03 92.2399 38.15 91.8699 38.48C91.7599 38.57 91.4899 38.81 91.3199 39.19C90.9599 40 91.28 41.1 92.02 41.64C92.45 41.95 92.9399 42.11 93.4399 42.11C94.3099 42.11 95.14 41.6 95.5 40.84C95.83 40.14 95.7299 39.38 95.2099 38.75C94.7699 38.21 94.15 37.92 93.42 37.92H93.3699Z" fill="#FBA81A"/>
<path d="M85.82 47.15C85.68 47.15 85.55 47.15 85.43 47.15C85.33 47.15 85.2401 47.15 85.1601 47.15C84.8201 47.15 84.5401 47.15 84.3601 47.13C84.3601 47.11 84.3601 47.09 84.3601 47.07C84.3001 46.42 84.3501 45.57 84.4001 44.66C84.5001 42.87 84.6101 41.03 83.9601 39.72C83.5601 38.91 82.8801 38.82 82.6101 38.82C81.5901 38.82 80.6401 39.87 80.3301 40.63C79.8501 41.85 79.8301 43.19 79.8601 44.35C79.8601 44.51 79.8801 44.69 79.8901 44.88C79.9401 45.55 80.0001 46.3 79.6401 46.7C79.4501 46.91 79.0901 47.01 78.5201 47.01C78.3301 47.01 78.1501 47.01 77.9801 46.99C77.8901 46.99 77.8001 46.99 77.7101 46.98C77.0701 46.96 76.83 46.72 76.81 46.07C76.79 45.46 76.8101 44.83 76.8301 44.22C76.8601 43.41 76.89 42.58 76.82 41.76C76.74 40.78 76.7501 39.79 76.7701 38.87C76.7701 38.72 76.7701 38.51 76.7501 38.26C76.7201 37.8 76.6501 36.41 76.8901 36.23C77.0801 36.09 77.72 35.94 78.68 35.94C78.9 35.94 79.0901 35.94 79.2601 35.96C79.5801 35.98 79.6101 36.04 79.6101 36.61C79.6101 36.71 79.6101 36.82 79.6101 36.93C79.6201 37.11 79.6101 37.29 79.6101 37.48C79.6101 37.88 79.6101 38.3 79.7101 38.69C79.7401 38.84 79.8701 39.05 80.1001 39.05C80.1901 39.05 80.4101 39.02 80.4801 38.69C80.9101 37.35 82.96 36.59 84.2 36.59C84.72 36.59 85.1601 36.7 85.4801 36.92C86.2701 37.45 86.85 38.77 86.93 39.69C87.08 41.29 87.01 43.78 86.93 45.6V45.74C86.92 45.85 86.93 45.96 86.93 46.08C86.93 46.35 86.9301 46.65 86.8601 46.84C86.7801 47.05 86.43 47.16 85.82 47.16V47.15Z" fill="#FBA81A"/>
<path d="M49.49 47.08C48.21 47.08 46.96 46.81 46.3 46.39C44.27 45.1 44.3499 41.66 45.0599 39.63C45.7199 37.74 46.8099 36.96 48.9599 36.84C49.4399 36.81 49.81 36.8 50.15 36.8C51.79 36.8 53.12 37.64 53.8 39.11C54.01 39.56 54.15 40.04 54.22 40.56C54.5 42.59 54.21 45.18 52.54 46.34C51.76 46.88 50.45 47.08 49.49 47.08ZM49.54 38.76C48.06 38.78 47.25 39.36 46.91 40.64C46.7 41.42 46.4599 42.9 47.1899 43.99C47.5999 44.6 48.2399 44.97 49.0899 45.09C49.2899 45.12 49.48 45.13 49.65 45.13C50.44 45.13 51.07 44.87 51.51 44.37C52.26 43.51 52.26 42.16 52.13 41.18C51.9 39.51 51.13 38.77 49.61 38.77H49.54V38.76Z" fill="#FBA81A"/>
<path d="M36.1699 47.29C36.0799 47.29 35.9899 47.29 35.8999 47.29C35.5099 47.28 34.9898 47.24 34.7498 47.2C34.6798 47.19 34.6299 47.13 34.6299 47.11C34.4799 46.16 34.5099 45.14 34.5399 44.15C34.5599 43.65 34.5698 43.14 34.5598 42.64V42.28C34.5398 41.35 34.5199 40.39 34.5399 39.45C34.5399 38.92 34.5598 38.39 34.5898 37.87C34.6298 37.08 34.8998 36.88 36.0598 36.76C36.2098 36.75 36.6998 36.72 37.0898 36.72C37.2498 36.72 37.3799 36.72 37.5099 36.73C37.5099 36.8 37.5099 36.87 37.5099 36.93C37.5099 37.52 37.5099 38.19 37.9099 38.42C38.0099 38.48 38.1198 38.51 38.2398 38.51C38.6398 38.51 39.0498 38.19 39.4698 37.84C39.5398 37.78 39.5899 37.74 39.6399 37.7C39.7599 37.61 40.0098 37.42 40.0698 37.39C40.4798 37.19 40.8498 37.09 41.1798 37.09C41.5098 37.09 41.7799 37.2 42.0399 37.42C42.6299 37.96 43.3799 39.83 43.2999 40.6C43.2499 41.08 42.4999 41.56 41.7799 41.56C41.6799 41.56 41.5798 41.55 41.4998 41.53C41.4698 41.46 41.4098 41.29 41.3198 40.94V40.9C41.0398 39.85 40.1498 39.04 39.2498 39.04C38.8898 39.04 38.3599 39.17 37.8899 39.76C37.6499 40.06 37.5298 40.33 37.4598 40.74C37.3598 41.34 37.3899 41.95 37.4199 42.53C37.4399 42.85 37.4498 43.16 37.4498 43.46C37.4498 43.88 37.4598 44.32 37.4798 44.74C37.5098 45.4 37.5398 46.09 37.4698 46.73C37.4198 47.15 37.2598 47.21 36.5898 47.27C36.4598 47.28 36.3198 47.28 36.1998 47.28L36.1699 47.29Z" fill="#FBA81A"/>
<path d="M72.5201 46.94C72.0201 46.94 71.79 46.99 71.57 46.86C71.29 46.69 71.35 45.5 71.34 44.98C71.34 44.69 71.35 44.01 71.34 43.84C71.32 43.51 71.33 43.1 71.34 42.63C71.38 41.37 71.28 39.84 71.34 39.02C71.58 38.97 72.11 38.91 72.32 38.89C72.43 38.89 72.62 38.88 72.84 38.88C73.61 38.88 74.08 38.95 74.25 39C74.31 39.35 74.3001 40.17 74.2801 40.68C74.2501 41.61 74.2801 42.58 74.2801 43.46C74.2801 44.29 74.2601 45.1 74.2901 45.9C74.2901 46.11 74.2901 46.3 74.2701 46.45C74.2401 46.7 74.0501 46.89 73.8001 46.91C73.4501 46.94 72.9301 46.95 72.5101 46.95L72.5201 46.94Z" fill="#FBA81A"/>
<path d="M72.5202 46.6C72.2002 46.6 71.9601 46.58 71.8301 46.57C71.7701 46.27 71.7201 45.57 71.7301 44.98C71.7301 44.76 71.7101 44.32 71.6901 44.02V43.82C71.6601 43.53 71.6701 43.15 71.6901 42.63C71.7101 42.01 71.6901 41.34 71.6901 40.7C71.6901 40.18 71.6701 39.68 71.6901 39.3C71.9301 39.27 72.2301 39.23 72.3701 39.22C72.4801 39.22 72.6601 39.21 72.8701 39.21C73.4001 39.21 73.7601 39.24 73.9701 39.28C73.9901 39.64 73.9901 40.22 73.9701 40.67C73.9501 41.25 73.9601 41.84 73.9701 42.41C73.9701 42.77 73.9701 43.12 73.9701 43.45V43.78C73.9701 44.51 73.9601 45.2 73.9801 45.9C73.9901 46.21 73.9601 46.43 73.9301 46.55C73.7701 46.57 73.3902 46.61 72.5402 46.61L72.5202 46.6Z" fill="#FBA81A"/>
<path d="M27.4601 48.56C25.7101 48.56 24.6401 48.27 24.3801 48.01C24.1001 47.72 24.1901 47.07 24.4501 46.61C24.4501 46.61 24.4501 46.59 24.4601 46.58C24.5501 46.58 24.6401 46.58 24.7301 46.58C25.0701 46.58 25.4202 46.62 25.7902 46.66H25.8701C26.2501 46.71 26.6401 46.76 27.0601 46.76C27.7801 46.76 28.8601 46.76 29.4001 45.92C29.6401 45.55 29.8102 45.09 29.9202 44.52C29.9502 44.37 29.9501 44.18 29.9501 43.98C29.9501 43.8 29.9501 43.47 30.0001 43.38L29.4202 43.04C29.1702 43.46 28.5402 43.87 28.0502 44.06C27.6002 44.23 27.0101 44.32 26.3901 44.32C24.9801 44.32 23.7401 43.87 23.2101 43.16C22.2701 41.91 22.1102 40.19 22.8002 38.68C23.4202 37.31 24.5901 36.46 25.9901 36.35C26.1901 36.33 26.3901 36.33 26.6101 36.33C27.7301 36.33 28.4101 36.62 28.9801 37.33L29.6602 38.18L30.3002 37.3C30.5302 36.98 30.6801 36.93 31.0601 36.93C31.2301 36.93 31.4101 36.94 31.6101 36.96C32.3101 37.01 32.4801 37.16 32.5201 37.21C32.6501 37.37 32.5501 37.97 32.4601 38.45C32.4001 38.81 32.3401 39.18 32.3101 39.58C32.2401 40.55 32.2501 41.53 32.2501 42.48C32.2501 43.25 32.2601 43.99 32.2301 44.72C32.1701 46.12 32.0701 47.01 31.2101 47.71C30.8001 48.04 30.3102 48.25 29.6602 48.39C29.1502 48.49 28.2901 48.56 27.4801 48.56H27.4601ZM27.3501 37.85C27.0401 37.85 26.8201 37.89 26.7601 37.91C26.5901 37.95 26.2501 38.02 25.8901 38.29C25.7601 38.39 25.4201 38.68 25.2401 39.12C24.9001 39.96 25.2101 41.03 25.9501 41.56C26.3801 41.87 26.8701 42.03 27.3701 42.03C28.2401 42.03 29.07 41.52 29.43 40.76C29.76 40.06 29.6601 39.3 29.1401 38.67C28.7001 38.13 28.0801 37.84 27.3501 37.84V37.85Z" fill="#FBA81A"/>
<path d="M42.5601 63.07C41.5501 63.07 40.6002 62.86 40.2702 62.66C40.0202 62.51 39.7201 61.91 39.5701 61.31C39.0601 59.18 39.1601 56.67 39.2501 54.45L39.2702 54.05C39.2702 53.92 39.2702 53.72 39.2702 53.49C39.2702 53.33 39.2502 52.89 39.2702 52.64C39.3902 52.6 39.5601 52.55 39.6901 52.54C39.7801 52.54 39.9801 52.52 40.2501 52.52C40.3601 52.52 40.4501 52.52 40.5601 52.52C40.6701 52.52 40.7802 52.52 40.8902 52.52C41.3802 52.52 41.6601 52.6 41.8101 52.77C42.1201 53.14 41.9802 54.05 41.8902 54.65C41.8602 54.82 41.8401 54.97 41.8301 55.1C41.7701 55.62 41.7201 56.14 41.7001 56.64V56.96C41.6701 57.54 41.6501 58.26 41.7001 58.79C41.7901 59.56 42.3102 59.91 42.7902 59.91C43.2702 59.91 43.7301 59.57 43.9401 59.06C44.0201 58.87 44.1302 58.42 44.2802 57.73C44.3302 57.49 44.3802 57.23 44.4202 56.95C44.5602 56.12 44.7102 55.19 45.1302 54.77C45.1702 54.73 45.3701 54.64 45.6801 54.64C46.0501 54.64 46.2802 54.78 46.5102 55.15C46.6302 55.35 46.7102 55.6 46.7902 55.85L46.8301 55.96C46.9501 56.33 47.0301 56.77 47.1201 57.23C47.2401 57.84 47.3601 58.47 47.5801 59.03C47.7901 59.57 48.2301 59.91 48.7201 59.91C49.1601 59.91 49.7101 59.62 49.8101 58.79C49.9401 57.67 49.7801 56.54 49.6201 55.45C49.4801 54.48 49.3401 53.57 49.4401 52.77C49.4501 52.67 49.6202 52.58 49.7702 52.55C50.0502 52.5 50.8101 52.47 51.3101 52.47C51.4101 52.47 51.4901 52.47 51.5601 52.47C51.7101 52.47 51.9201 52.5 52.0701 52.53C52.0701 52.56 52.0701 52.6 52.0701 52.65C52.0701 52.78 52.0701 52.93 52.1001 53.08C52.3601 54.8 52.3701 57.81 52.2401 59.6C52.1701 60.51 51.7601 62.15 51.4401 62.51C51.3501 62.6 50.8301 62.86 50.4501 62.93C50.2001 62.98 49.6701 63.03 49.0901 63.03C48.4401 63.03 48.0502 62.97 47.9202 62.91C47.5502 62.76 47.2201 61.7 46.9901 60.93C46.6601 59.86 46.4002 59.02 45.7902 59.02C45.7302 59.02 45.6801 59.02 45.6201 59.05C45.0301 59.22 44.9201 59.86 44.8501 60.23L44.8002 60.49C44.6502 61.31 44.3902 62.68 43.6502 62.95C43.4402 63.03 43.0401 63.07 42.6001 63.07H42.5601Z" fill="#FBA81A"/>
<path d="M56.0401 63.38C55.6901 63.38 55.44 63.31 55.31 63.17C55.08 62.93 55.1 62.41 55.12 61.86C55.12 61.75 55.12 61.64 55.12 61.54C55.12 61.3 55.09 60.81 55.07 60.49C55.07 60.39 55.06 60.3 55.06 60.25C55.05 60 55.05 59.69 55.06 59.29C55.08 58.27 55.1 57.21 55.06 56.14C55.02 55.35 55.18 55.14 55.86 55.1C55.98 55.1 56.1801 55.09 56.4001 55.09C56.6601 55.09 56.9101 55.09 57.1301 55.11C57.4301 55.13 57.6601 55.37 57.6701 55.65C57.6701 56.1 57.6701 56.56 57.6601 56.74C57.6401 57.38 57.6501 58.04 57.6601 58.68C57.6601 59.07 57.6601 59.46 57.6601 59.83V60.21C57.6601 61.02 57.6501 61.78 57.6701 62.55C57.6701 62.64 57.6701 62.73 57.6701 62.81C57.6701 63.1 57.43 63.33 57.12 63.35C56.83 63.37 56.4701 63.37 56.0401 63.37V63.38Z" fill="#FBA81A"/>
<path d="M57.15 108.2C56.62 108.2 56.14 108.16 55.66 108.09C55.42 108.05 55.1499 108.01 54.9399 106.99C54.6299 105.53 54.5999 104.03 54.5699 102.44C54.5099 99.12 54.3599 95.78 54.2099 92.55L54.11 90.34C54.11 90.13 54.0899 89.88 54.0699 89.62C54.0099 88.56 53.89 86.41 54.16 85.57C54.26 85.52 54.46 85.46 54.76 85.43C54.92 85.41 55.1099 85.41 55.3299 85.41C55.5499 85.41 55.7599 85.41 55.9699 85.42C56.2399 85.42 56.4799 85.44 56.7099 85.44C56.8399 85.44 56.9699 85.44 57.0899 85.44C57.5199 85.42 57.95 85.39 58.39 85.36C59 85.32 59.6199 85.27 60.1999 85.27C60.3799 85.27 60.56 85.27 60.74 85.28C61.66 85.33 61.9399 85.38 62.2199 85.66C62.2599 85.7 62.2899 85.73 62.3299 85.76C62.3899 85.94 62.4599 86.22 62.4699 86.31C62.5899 87.47 62.5699 89.93 62.4699 91.06C62.2299 93.83 62.2199 96.56 62.1999 99.2C62.1899 101.01 62.1799 102.87 62.0899 104.72C62.0699 105.25 62 106.67 61.66 107.22C61.24 107.87 60.6599 107.95 59.4699 108.05L59.04 108.09C58.43 108.15 57.78 108.2 57.13 108.2H57.15Z" fill="#FBA81A"/>
<path d="M58.42 81.57C58.14 81.44 57.7099 81.24 57.2099 80.95C55.6999 80.1 53.1099 78.34 52.7099 76.04V76.01L52.6899 75.98C52.6499 75.81 52.2899 74.28 53.9299 73.36C53.9899 73.34 54.26 73.25 54.63 73.25C55.2 73.25 56.07 73.46 56.97 74.45C57.03 74.51 57.09 74.58 57.14 74.64L57.78 75.44L58.26 74.54C58.26 74.54 58.2999 74.46 58.3299 74.42C58.3599 74.38 58.38 74.33 58.41 74.29C59.28 72.83 60.36 72.61 60.92 72.61C61.04 72.61 61.13 72.62 61.17 72.63C62.95 73.2 62.91 74.77 62.9 74.95V74.98V75.01C62.97 77.37 60.7599 79.62 59.4399 80.75C59.0199 81.12 58.65 81.4 58.41 81.57H58.42Z" fill="#FBA81A"/>
<path d="M58.3098 51.87C58.1498 52.75 57.2298 53.4 56.6098 53.74C56.2898 53.92 56.0598 54.01 56.0598 54.01C56.0598 54.01 55.8498 53.87 55.5698 53.62C55.0398 53.16 54.2798 52.34 54.3098 51.45C54.3098 51.45 54.2498 50.66 55.0898 50.41C55.0898 50.41 55.7999 50.25 56.2999 51.11C56.3199 51.14 56.3398 51.17 56.3498 51.2C56.3698 51.17 56.3999 51.15 56.4199 51.12C57.0899 50.38 57.7598 50.69 57.7598 50.69C58.5198 51.11 58.3098 51.87 58.3098 51.87Z" fill="#FBA81A"/>
<path d="M74.7399 36.24C74.5799 37.12 73.66 37.77 73.04 38.11C72.72 38.29 72.4899 38.38 72.4899 38.38C72.4899 38.38 72.28 38.24 72 37.99C71.47 37.53 70.7099 36.71 70.7399 35.82C70.7399 35.82 70.68 35.03 71.52 34.78C71.52 34.78 72.2299 34.62 72.7299 35.48C72.7499 35.51 72.77 35.54 72.78 35.57C72.8 35.54 72.8299 35.52 72.8499 35.49C73.5199 34.75 74.1899 35.06 74.1899 35.06C74.9499 35.48 74.7399 36.24 74.7399 36.24Z" fill="#FBA81A"/>
</svg>
